<svg width="374" height="385" viewBox="0 0 374 385" xmlns="http://www.w3.org/2000/svg">
    <g fill="none" fill-rule="evenodd">
        <path d="M310.807 39.703v305.594c0 21.897-17.726 39.703-39.703 39.703h-231.4C17.806 385 0 367.194 0 345.297V39.703C0 17.806 17.807 0 39.703 0h231.401c21.977 0 39.703 17.806 39.703 39.703z" fill="#FFF"/>
        <path d="M310.807 39.703v305.594c0 21.897-17.726 39.703-39.703 39.703h-17.806c21.897 0 39.703-17.806 39.703-39.703V39.703C293.001 17.806 275.195 0 253.298 0h17.806c21.977 0 39.703 17.806 39.703 39.703z" fill="#A3ABB1" opacity=".105"/>
        <path d="M127.772 45.332v73.603c0 7.317-5.932 13.248-13.249 13.248H45.332c-7.317 0-13.249-5.931-13.249-13.248V45.332c0-7.317 5.932-13.249 13.249-13.249h69.191c7.317 0 13.249 5.932 13.249 13.249z" fill="#1F255A"/>
        <path d="M127.772 45.318v73.632c0 7.298-5.936 13.233-13.234 13.233h-69.22c-6.176 0-11.39-4.251-12.834-10.026.882.241 1.925.321 2.888.321h69.22c7.299 0 13.234-5.935 13.234-13.315V35.612c0-1.122-.16-2.166-.4-3.208 5.934 1.363 10.346 6.577 10.346 12.914z" fill="#1F255A"/>
        <g fill="#E9EAF1" fill-rule="nonzero">
            <path d="M58.372 236.507h194.102a5.777 5.777 0 0 0 5.775-5.775 5.777 5.777 0 0 0-5.775-5.775H58.372a5.776 5.776 0 0 0-5.775 5.775 5.776 5.776 0 0 0 5.775 5.775zM58.372 201.143h194.102a5.777 5.777 0 0 0 5.775-5.775 5.777 5.777 0 0 0-5.775-5.775H58.372a5.776 5.776 0 0 0-5.775 5.775 5.776 5.776 0 0 0 5.775 5.775zM104.719 342.593h101.408a5.776 5.776 0 0 0 5.775-5.775 5.777 5.777 0 0 0-5.775-5.775H104.72a5.777 5.777 0 0 0-5.775 5.775 5.776 5.776 0 0 0 5.775 5.775zM58.372 307.232h194.102a5.777 5.777 0 0 0 5.775-5.775 5.777 5.777 0 0 0-5.775-5.775H58.372a5.777 5.777 0 0 0-5.775 5.775 5.777 5.777 0 0 0 5.775 5.775zM58.372 165.782h194.102a5.777 5.777 0 0 0 5.775-5.775 5.777 5.777 0 0 0-5.775-5.775H58.372a5.776 5.776 0 0 0-5.775 5.775 5.776 5.776 0 0 0 5.775 5.775zM158.633 103.405h93.841a5.777 5.777 0 0 0 5.775-5.775 5.777 5.777 0 0 0-5.775-5.775h-93.841a5.776 5.776 0 0 0-5.775 5.775 5.777 5.777 0 0 0 5.775 5.775zM158.633 68.045h93.841a5.777 5.777 0 0 0 5.775-5.775 5.777 5.777 0 0 0-5.775-5.775h-93.841a5.776 5.776 0 0 0-5.775 5.775 5.776 5.776 0 0 0 5.775 5.775zM58.372 271.868h194.102a5.776 5.776 0 0 0 5.775-5.775 5.776 5.776 0 0 0-5.775-5.775H58.372a5.776 5.776 0 0 0-5.775 5.775 5.776 5.776 0 0 0 5.775 5.775z"/>
        </g>
        <path d="M290.198 173.54v168.562c-39.561 25.31-92.735 19.887-126.235-15.42-38.072-39.987-36.477-103.264 3.617-141.336 34.03-32.33 84.758-35.946 122.618-11.806z" fill="#E1E3EA" fill-rule="nonzero"/>
        <path d="M364.39 325.326c13.355 14.054 12.788 36.316-1.266 49.67-14.09 13.39-36.352 12.822-49.707-1.231-6.237-6.564-19.673-25.632-30.93-45.55a79.741 79.741 0 0 0 22.063-14.857c6.635-6.304 11.969-13.478 15.926-21.243 19.318 12.257 37.677 26.648 43.914 33.21z" fill="#E55658"/>
        <path d="M333.037 300.475a80.008 80.008 0 0 1-13.027 15.909c-11.577 10.926-14.08 28.43-5.11 41.58 5.788 8.486 10.948 15.237 14.177 18.636a35.188 35.188 0 0 0 11.421 8.018 34.974 34.974 0 0 1-27.08-10.853c-6.238-6.564-19.674-25.632-30.931-45.55a79.741 79.741 0 0 0 22.063-14.857c6.635-6.304 11.969-13.478 15.926-21.243a348.117 348.117 0 0 1 12.56 8.36z" fill="#C84345" fill-rule="nonzero"/>
        <path d="M308.906 172.808c38.046 40.035 36.431 103.364-3.572 141.379-40.035 38.045-103.365 36.43-141.41-3.605-38.014-40.003-36.4-103.333 3.636-141.378 40.003-38.014 103.332-36.4 141.346 3.604z" fill="#E55658" fill-rule="nonzero"/>
        <path d="M308.881 172.82c38.05 40.041 36.437 103.333-3.56 141.341-21.873 20.786-50.72 29.764-78.57 27.007 23.029-1.156 45.781-10.289 63.77-27.384 39.997-38.008 41.611-101.3 3.56-141.341-17.18-18.08-39.526-28.275-62.508-30.647 28.041-1.332 56.48 9.106 77.308 31.024z" fill="#C84345" fill-rule="nonzero"/>
        <path d="M288.407 192.296c27.285 28.712 26.127 74.13-2.562 101.391-28.711 27.285-74.129 26.127-101.413-2.585-27.262-28.688-26.104-74.105 2.608-101.39 28.688-27.262 74.105-26.104 101.367 2.584z" fill="#FFF" fill-rule="nonzero"/>
        <path d="M200.266 288.49c14.997 15.782 35.464 23.274 55.648 22.244-24.8 6.963-52.51.33-71.49-19.643-27.271-28.698-26.115-74.075 2.626-101.387 12.96-12.315 29.192-18.787 45.74-19.617a71.606 71.606 0 0 0-29.94 17.057c-28.699 27.271-29.856 72.648-2.584 101.346z" fill="#E9EAF1" fill-rule="nonzero"/>
        <g fill="#FFF" fill-rule="nonzero">
            <path d="M98.992 112.71c4.49 0 7.669-4.531 6.044-8.718-3.905-10.062-13.664-17.198-25.108-17.198-11.445 0-21.204 7.136-25.109 17.198-1.624 4.187 1.554 8.717 6.044 8.717h38.129zM92.801 64.39c0 7.14-5.775 12.835-12.914 12.835-7.058 0-12.833-5.696-12.833-12.834s5.775-12.834 12.833-12.834c7.139 0 12.914 5.696 12.914 12.834z"/>
        </g>
    </g>
</svg>
