<svg width="153" height="44" xmlns="http://www.w3.org/2000/svg"><g fill="none"><path d="M5.88 19.746c0 1.23 0 3.09.26 5.23a41.72 41.72 0 0 0 .86 5.16 26.93 26.93 0 0 0 1.23 4 15.11 15.11 0 0 0 3.43 5.37 10.27 10.27 0 0 0 2.77 1.91 9.923 9.923 0 0 0 3.47.89h1.09c1.466.006 2.923-.23 4.31-.7a10.94 10.94 0 0 0 6.54-6 16.21 16.21 0 0 0 1.27-6.53 17.08 17.08 0 0 1 .89-5.22 17.6 17.6 0 0 1 2.1-4.33 16.3 16.3 0 0 1 6.19-5.47 24.85 24.85 0 0 1 11.42-2.4 16.78 16.78 0 0 1 4.48.55 11.32 11.32 0 0 1 5 2.79 12.41 12.41 0 0 1 2.21 2.93 16.15 16.15 0 0 1 1.6 4.32c.13.59.2 1.07.24 1.4.008.12.008.24 0 .36v.07h.84-.84.84-.84l2.11-.1-2.11.09 2.11-.1-2.11.09 2.76-.06h-2.78c.028.927.111 1.852.25 2.77a26.11 26.11 0 0 0 1 4.29 19.88 19.88 0 0 0 1.63 3.72 14.59 14.59 0 0 0 4.66 5.07 12.83 12.83 0 0 0 3.55 1.63c1.407.394 2.86.59 4.32.58.58 0 1.17 0 1.78-.08a15.84 15.84 0 0 0 3.85-.77 8.36 8.36 0 0 0 4.49-3.66 12.57 12.57 0 0 0 1.5-4.12 28.62 28.62 0 0 0 .46-5.5V3.586h-5.54v24.33a21.2 21.2 0 0 1-.48 5 6 6 0 0 1-.69 1.85 2.64 2.64 0 0 1-.59.67c-.37.29-.795.5-1.25.62a11.63 11.63 0 0 1-2.19.37c-.44.04-.86.06-1.26.06a9.86 9.86 0 0 1-3.2-.5 7.78 7.78 0 0 1-2-1.08 9.34 9.34 0 0 1-2.52-3 17.49 17.49 0 0 1-1.83-5.41c-.14-.79-.21-1.48-.25-1.94v-.53a.68.68 0 0 1 0-.12h-.81.81-.81.81v-.09a18.64 18.64 0 0 0-.52-2.82 21.94 21.94 0 0 0-1.39-4.32 19.19 19.19 0 0 0-2.2-3.68 16.48 16.48 0 0 0-5.8-4.88 20.48 20.48 0 0 0-9.3-2A31.17 31.17 0 0 0 39 8.506a22.15 22.15 0 0 0-6.53 4.34 22.45 22.45 0 0 0-5.47 8.33 23.54 23.54 0 0 0-1.5 7.88 10.92 10.92 0 0 1-.63 3.94 5.93 5.93 0 0 1-1 1.77 5.21 5.21 0 0 1-2.12 1.51 7.5 7.5 0 0 1-2.77.5h-.68a4.22 4.22 0 0 1-1.78-.51 5.12 5.12 0 0 1-1.28-1 10.53 10.53 0 0 1-1.91-3.27 27.67 27.67 0 0 1-1.56-6.69 47.58 47.58 0 0 1-.32-5.54V4.606H5.91v15.12" fill="#EB5C5D"/><path d="M6 19.266V5.526H.51a.51.51 0 0 1-.36-.14.51.51 0 0 1-.15-.39v-3.92a.48.48 0 0 1 .15-.36.51.51 0 0 1 .36-.15h16.37a.51.51 0 0 1 .35.15.48.48 0 0 1 .15.36v3.92a.51.51 0 0 1-.15.36.5.5 0 0 1-.35.14h-5.45v13.77" fill="#EB5C5D"/><path d="M28.3 5.116a4.59 4.59 0 0 1 3.29 1.35c.435.429.775.943 1 1.51a5.22 5.22 0 0 1 0 3.81 4.31 4.31 0 0 1-1 1.51 4.39 4.39 0 0 1-1.46 1 4.81 4.81 0 0 1-3.65 0 4.39 4.39 0 0 1-1.46-1 4.46 4.46 0 0 1-1-1.51 5.22 5.22 0 0 1-.02-3.79 4.46 4.46 0 0 1 1-1.51 4.39 4.39 0 0 1 1.46-1 4.56 4.56 0 0 1 1.83-.36M21 16.906a10.15 10.15 0 0 0 3.29 2.09 10.93 10.93 0 0 0 8 0 10 10 0 0 0 3.26-2.1 9.85 9.85 0 0 0 3-7 9.85 9.85 0 0 0-3-7 9.92 9.92 0 0 0-3.24-2.13 10.83 10.83 0 0 0-8 0A10 10 0 0 0 21 2.856a9.85 9.85 0 0 0-3 7 9.85 9.85 0 0 0 3 7m21 .56a7.66 7.66 0 0 0 2.8 1.75 10.36 10.36 0 0 0 3.59.6 9.82 9.82 0 0 0 3.61-.62 7.67 7.67 0 0 0 4.58-4.52 9.7 9.7 0 0 0 .63-3.55V.816a.48.48 0 0 0-.21-.36.51.51 0 0 0-.35-.15h-4.46a.51.51 0 0 0-.51.51v10.26a3.6 3.6 0 0 1-.9 2.6 3.12 3.12 0 0 1-2.39 1 3.17 3.17 0 0 1-2.4-1 3.56 3.56 0 0 1-.91-2.6V.816a.48.48 0 0 0-.15-.36.51.51 0 0 0-.36-.15H40.1a.51.51 0 0 0-.35.15.48.48 0 0 0-.15.36v10.26a9.73 9.73 0 0 0 .62 3.57 7.86 7.86 0 0 0 1.78 2.77m33.18-7.92a7.68 7.68 0 0 0-4.26-1.88l-3.76-.62a3.49 3.49 0 0 1-1.42-.47.69.69 0 0 1-.23-.26.84.84 0 0 1-.08-.39.61.61 0 0 1 .11-.36 1.31 1.31 0 0 1 .46-.35 4 4 0 0 1 1.9-.37 7.46 7.46 0 0 1 2.62.49 10.55 10.55 0 0 1 2.66 1.56.49.49 0 0 0 .72-.1l2.36-3.3a.5.5 0 0 0-.09-.69 11.9 11.9 0 0 0-3.7-2 13.34 13.34 0 0 0-4.31-.71 9.23 9.23 0 0 0-5.77 1.63 5.32 5.32 0 0 0-1.64 2 5.86 5.86 0 0 0-.55 2.57 5.2 5.2 0 0 0 1.33 3.64 6.32 6.32 0 0 0 3.69 1.85l4 .7a4.68 4.68 0 0 1 1.78.56c.12.08.217.19.28.32a.93.93 0 0 1 .09.44.76.76 0 0 1-.13.46 1.28 1.28 0 0 1-.47.39 4.6 4.6 0 0 1-2.17.41 7 7 0 0 1-2.79-.56 12.06 12.06 0 0 1-2.94-1.85.51.51 0 0 0-.38-.1.46.46 0 0 0-.34.19l-2.5 3.25a.5.5 0 0 0 .08.69 13.2 13.2 0 0 0 4 2.32 12.87 12.87 0 0 0 4.53.84 10 10 0 0 0 6.13-1.71 5.8 5.8 0 0 0 1.72-2.09 6 6 0 0 0 .59-2.69 5.09 5.09 0 0 0-1.52-3.81" fill="#002EA6"/><path d="M87.21 18.146c0 .281.23.51.51.51h4.47a.51.51 0 0 0 .51-.51V5.526h5.44a.51.51 0 0 0 .51-.5v-3.95a.51.51 0 0 0-.51-.51H81.77a.51.51 0 0 0-.51.51v3.92a.51.51 0 0 0 .51.5h5.44v12.65z" fill="#EB5C5D"/><path d="M115.66 19.616a.47.47 0 0 0 .15-.35v-3.88a.51.51 0 0 0-.5-.5h-9.48v-2.42h6a.51.51 0 0 0 .51-.51v-3.74a.51.51 0 0 0-.51-.5h-6v-2.27h9.37a.51.51 0 0 0 .36-.14.55.55 0 0 0 .15-.36v-3.87a.51.51 0 0 0-.51-.51h-14.34a.51.51 0 0 0-.51.51v18.19a.51.51 0 0 0 .51.5h14.45a.47.47 0 0 0 .35-.15m10.13.15a10 10 0 0 0 6.14-1.71 5.77 5.77 0 0 0 1.75-2.06 6 6 0 0 0 .59-2.69 5 5 0 0 0-1.52-3.79 7.68 7.68 0 0 0-4.26-1.88l-3.76-.64a3.5 3.5 0 0 1-1.43-.47.78.78 0 0 1-.23-.26.85.85 0 0 1-.07-.39.61.61 0 0 1 .1-.36 1.31 1.31 0 0 1 .42-.35 4.07 4.07 0 0 1 1.91-.37 7.64 7.64 0 0 1 2.61.49 10.55 10.55 0 0 1 2.66 1.56.49.49 0 0 0 .72-.1l2.37-3.3a.51.51 0 0 0-.1-.69 11.79 11.79 0 0 0-3.7-2 13.23 13.23 0 0 0-4.25-.73 9.26 9.26 0 0 0-5.74 1.65 5.42 5.42 0 0 0-1.64 2 5.86 5.86 0 0 0-.55 2.57 5.2 5.2 0 0 0 1.33 3.64 6.32 6.32 0 0 0 3.69 1.85l4 .7a4.54 4.54 0 0 1 1.73.56c.12.08.217.19.28.32a1 1 0 0 1 .1.44.84.84 0 0 1-.14.46 1.2 1.2 0 0 1-.47.39 4.58 4.58 0 0 1-2.16.41 7.07 7.07 0 0 1-2.8-.56 12.25 12.25 0 0 1-2.94-1.85.51.51 0 0 0-.38-.1.49.49 0 0 0-.34.19l-2.49 3.25a.5.5 0 0 0 .07.69 13.2 13.2 0 0 0 4 2.32 12.87 12.87 0 0 0 4.53.84M5.48 29.996h4.09a1.7 1.7 0 0 1 1.23.44 1.5 1.5 0 0 1 .45 1.16 1.45 1.45 0 0 1-.45 1.11 1.7 1.7 0 0 1-1.23.43H5.48v-3.14zm9.4-3a6.39 6.39 0 0 0-2.14-1.35 7.25 7.25 0 0 0-2.65-.47H.51a.48.48 0 0 0-.36.15.47.47 0 0 0-.15.35v18.2a.51.51 0 0 0 .51.51H5a.51.51 0 0 0 .5-.51v-6h4.61a7.16 7.16 0 0 0 2.64-.48 6.64 6.64 0 0 0 2.12-1.31 5.8 5.8 0 0 0 1.42-2 6.13 6.13 0 0 0 .51-2.49 6.22 6.22 0 0 0-1.92-4.6m12.73 12.27a4.5 4.5 0 0 1-3.29-1.36 4.32 4.32 0 0 1-1-1.5 5.22 5.22 0 0 1 0-3.81 4.36 4.36 0 0 1 1-1.51 4.7 4.7 0 0 1 5.11-1 4.73 4.73 0 0 1 1.47 1 4.34 4.34 0 0 1 1 1.51 5.22 5.22 0 0 1 0 3.81 4.3 4.3 0 0 1-1 1.5 4.73 4.73 0 0 1-1.47 1 4.55 4.55 0 0 1-1.82.36m7.26-11.8a10.25 10.25 0 0 0-3.25-2.09 11 11 0 0 0-8 0 10.3 10.3 0 0 0-3.26 2.09 9.77 9.77 0 0 0-2.16 3.15 9.81 9.81 0 0 0 0 7.76 9.77 9.77 0 0 0 2.16 3.15 10 10 0 0 0 3.26 2.09 10.83 10.83 0 0 0 8 0 9.92 9.92 0 0 0 3.25-2.09 9.77 9.77 0 0 0 2.13-3.15 9.81 9.81 0 0 0 0-7.76 9.77 9.77 0 0 0-2.16-3.15m16.36 4.77-3.76-.63a3.32 3.32 0 0 1-1.44-.46.71.71 0 0 1-.23-.27.82.82 0 0 1-.08-.38.67.67 0 0 1 .11-.37 1.18 1.18 0 0 1 .42-.34 4 4 0 0 1 1.9-.37 7.24 7.24 0 0 1 2.62.49c.961.383 1.858.909 2.66 1.56a.52.52 0 0 0 .38.1.5.5 0 0 0 .34-.2l2.36-3.3a.5.5 0 0 0-.09-.69 11.9 11.9 0 0 0-3.7-2 13.07 13.07 0 0 0-4.26-.73 9.29 9.29 0 0 0-5.77 1.62 5.35 5.35 0 0 0-1.64 2 5.86 5.86 0 0 0-.55 2.57 5.2 5.2 0 0 0 1.33 3.64 6.38 6.38 0 0 0 3.69 1.85l4 .7a4.5 4.5 0 0 1 1.73.56.89.89 0 0 1 .28.31 1 1 0 0 1 .09.45.78.78 0 0 1-.13.46 1.38 1.38 0 0 1-.47.39 4.63 4.63 0 0 1-2.17.41 7.2 7.2 0 0 1-2.82-.56 12.37 12.37 0 0 1-2.9-1.85.5.5 0 0 0-.72.09l-2.5 3.24a.51.51 0 0 0 .08.7 13.2 13.2 0 0 0 4 2.32 12.87 12.87 0 0 0 4.53.84 10 10 0 0 0 6.13-1.71 5.8 5.8 0 0 0 1.76-2.08 6 6 0 0 0 .62-2.69 5.13 5.13 0 0 0-1.52-3.8 7.64 7.64 0 0 0-4.26-1.87m18.44 0-3.76-.63a3.43 3.43 0 0 1-1.43-.46.77.77 0 0 1-.22-.27.82.82 0 0 1-.08-.38.67.67 0 0 1 .11-.37 1.18 1.18 0 0 1 .42-.34 4 4 0 0 1 1.9-.37 7.24 7.24 0 0 1 2.62.49c.961.383 1.858.909 2.66 1.56a.52.52 0 0 0 .38.1.5.5 0 0 0 .34-.2l2.4-3.3a.5.5 0 0 0-.09-.69 11.9 11.9 0 0 0-3.7-2 13.07 13.07 0 0 0-4.26-.73 9.29 9.29 0 0 0-5.77 1.62 5.35 5.35 0 0 0-1.64 2 5.86 5.86 0 0 0-.55 2.57 5.2 5.2 0 0 0 1.33 3.64 6.38 6.38 0 0 0 3.68 1.85l4 .7a4.5 4.5 0 0 1 1.73.56.89.89 0 0 1 .28.31 1 1 0 0 1 .09.45.78.78 0 0 1-.13.46 1.38 1.38 0 0 1-.47.39 4.63 4.63 0 0 1-2.17.41 7.2 7.2 0 0 1-2.79-.56 12.37 12.37 0 0 1-2.94-1.85.5.5 0 0 0-.72.09l-2.5 3.24a.51.51 0 0 0 .08.7 13.2 13.2 0 0 0 4 2.32 12.87 12.87 0 0 0 4.53.84 10 10 0 0 0 6.13-1.71 5.8 5.8 0 0 0 1.76-2.08 6 6 0 0 0 .59-2.69 5.13 5.13 0 0 0-1.52-3.8 7.64 7.64 0 0 0-4.26-1.87m11.98-7.05H77.2a.51.51 0 0 0-.5.5v18.19a.48.48 0 0 0 .15.36.51.51 0 0 0 .35.15h4.47a.51.51 0 0 0 .36-.15.48.48 0 0 0 .15-.36v-18.19a.47.47 0 0 0-.15-.35.48.48 0 0 0-.36-.15m12.53 6.48a1.11 1.11 0 0 1-.3.39 1.82 1.82 0 0 1-1.22.38h-3.76v-2.58h3.76c.44-.02.871.114 1.22.38a1.2 1.2 0 0 1 .3.39c.068.165.102.342.1.52a1.3 1.3 0 0 1-.1.52m-5.28 5.21h4.15a2 2 0 0 1 1.32.4c.141.115.251.262.32.43.078.187.116.388.11.59a1.51 1.51 0 0 1-.11.59 1.07 1.07 0 0 1-.32.42 2 2 0 0 1-1.32.4h-4.15v-2.83zm9.15-2.38a5.62 5.62 0 0 0 1.09-1.34 4.75 4.75 0 0 0 .62-2.35 5.13 5.13 0 0 0-.52-2.29 5.27 5.27 0 0 0-1.43-1.79 6.79 6.79 0 0 0-2.17-1.14 8.68 8.68 0 0 0-2.7-.4H84a.48.48 0 0 0-.36.15.47.47 0 0 0-.15.35v18.19a.48.48 0 0 0 .15.36.51.51 0 0 0 .36.15h9.4a7.58 7.58 0 0 0 5-1.6 5.33 5.33 0 0 0 1.48-1.88c.334-.749.502-1.56.49-2.38a4.36 4.36 0 0 0-.83-2.53 6 6 0 0 0-1.47-1.45m18.11 4.88h-9.09v-13.74a.5.5 0 0 0-.14-.35.51.51 0 0 0-.36-.15h-4.47a.51.51 0 0 0-.51.5v18.19a.51.51 0 0 0 .51.51h14.06a.51.51 0 0 0 .35-.15.48.48 0 0 0 .15-.36v-4a.51.51 0 0 0-.15-.36.5.5 0 0 0-.35-.14m17.58.27a.51.51 0 0 0-.36-.15h-9.47v-2.41h6a.51.51 0 0 0 .5-.51v-3.74a.51.51 0 0 0-.5-.51h-6v-2.26h9.37a.5.5 0 0 0 .5-.51v-3.87a.5.5 0 0 0-.14-.35.51.51 0 0 0-.36-.15H119a.51.51 0 0 0-.5.5v18.19a.48.48 0 0 0 .15.36.51.51 0 0 0 .35.15h14.4a.51.51 0 0 0 .51-.51v-3.88a.55.55 0 0 0-.15-.36" fill="#002EA6"/><path d="M49.58 9.736c-.07-1.2-.24-2.38-.35-3.57A30 30 0 0 0 39 8.506l-.23.11c0 2.12-.16 4.24 0 6.35.49-.31 1-.62 1.55-.91a23.58 23.58 0 0 1 9.34-2.34v-2m33.54 31.75a23.73 23.73 0 0 1 0-4.84v-.37c-.38.07-.81.12-1.28.17-.47.05-.86.06-1.26.06a9.86 9.86 0 0 1-3.2-.5 7.71 7.71 0 0 1-1.16-.53 39.88 39.88 0 0 1-.36 5.87l.4.14c1.407.394 2.86.59 4.32.58.58 0 1.17 0 1.78-.08l.76-.09v-.41m-57.97-9.67c-.09.408-.21.81-.36 1.2a5.93 5.93 0 0 1-1 1.77 5.21 5.21 0 0 1-2.12 1.51 7.5 7.5 0 0 1-2.77.5h-.69a4.22 4.22 0 0 1-1.77-.51 2.57 2.57 0 0 1-.41-.26 11.1 11.1 0 0 0-.84 3.64 2.75 2.75 0 0 1-.84 1.8 10.08 10.08 0 0 0 3.46.88h1.09a13.17 13.17 0 0 0 4.3-.7 10.9 10.9 0 0 0 3.05-1.63 11 11 0 0 0 3.48-4.41 14.54 14.54 0 0 0 1-3.37 13 13 0 0 0-5.58-.45" fill="#EB5C5D"/><path d="M144.27 44.386a10 10 0 0 0 6.14-1.71 5.77 5.77 0 0 0 1.75-2.08 6 6 0 0 0 .59-2.69 5.06 5.06 0 0 0-1.52-3.8 7.61 7.61 0 0 0-4.23-1.87l-3.77-.63a3.38 3.38 0 0 1-1.42-.46.81.81 0 0 1-.23-.27.82.82 0 0 1-.08-.38.73.73 0 0 1 .11-.37 1.18 1.18 0 0 1 .42-.34 4.06 4.06 0 0 1 1.9-.37 7.2 7.2 0 0 1 2.62.49c.961.383 1.858.909 2.66 1.56a.52.52 0 0 0 .38.1.5.5 0 0 0 .34-.2l2.37-3.3a.51.51 0 0 0-.1-.69 11.79 11.79 0 0 0-3.7-2 13 13 0 0 0-4.25-.73 9.31 9.31 0 0 0-5.78 1.62 5.45 5.45 0 0 0-1.64 2 5.86 5.86 0 0 0-.55 2.57 5.2 5.2 0 0 0 1.33 3.64 6.31 6.31 0 0 0 3.69 1.84l4 .71a4.37 4.37 0 0 1 1.73.56.89.89 0 0 1 .28.31 1 1 0 0 1 .09.45.78.78 0 0 1-.13.46 1.29 1.29 0 0 1-.47.39 4.58 4.58 0 0 1-2.16.41 7.25 7.25 0 0 1-2.8-.56 12.37 12.37 0 0 1-2.94-1.85.5.5 0 0 0-.72.09l-2.49 3.24a.5.5 0 0 0 .07.7 13.41 13.41 0 0 0 4 2.32 12.87 12.87 0 0 0 4.53.84" fill="#002EA6"/></g></svg>