<?xml version="1.0" standalone="no"?>
<!DOCTYPE svg PUBLIC "-//W3C//DTD SVG 20010904//EN"
 "http://www.w3.org/TR/2001/REC-SVG-20010904/DTD/svg10.dtd">
<svg version="1.0" xmlns="http://www.w3.org/2000/svg"
 width="1047.000000pt" height="1047.000000pt" viewBox="0 0 1047.000000 1047.000000"
 preserveAspectRatio="xMidYMid meet">
<metadata>
Created by potrace 1.14, written by Peter Selinger 2001-2017
</metadata>
<g transform="translate(0.000000,1047.000000) scale(0.100000,-0.100000)"
fill="#000000" stroke="none">
<path d="M1885 6881 c-120 -20 -199 -50 -281 -108 -139 -97 -200 -250 -175
-435 13 -99 37 -153 92 -213 92 -100 166 -133 379 -170 203 -35 282 -53 318
-72 56 -28 55 -91 -1 -120 -46 -24 -195 -29 -277 -10 -72 17 -187 77 -266 138
-34 26 -61 39 -75 37 -14 -2 -46 -35 -90 -93 -38 -49 -72 -95 -76 -100 -84
-108 -84 -118 4 -184 89 -66 198 -122 319 -162 98 -33 101 -33 284 -33 174 0
190 1 269 27 270 87 396 259 378 518 -9 135 -84 255 -202 324 -68 41 -171 72
-310 94 -296 47 -339 61 -333 108 7 59 100 87 234 72 82 -9 163 -43 272 -113
43 -27 83 -46 95 -44 37 5 220 265 215 306 -4 32 -68 83 -170 134 -196 98
-400 131 -603 99z"/>
<path d="M3278 6875 c-196 -28 -342 -126 -410 -273 -28 -59 -32 -80 -36 -178
-4 -103 -2 -115 23 -180 31 -78 88 -151 149 -193 51 -35 169 -76 261 -91 39
-6 135 -24 215 -40 123 -25 148 -33 168 -55 27 -32 28 -45 2 -77 -29 -38 -93
-52 -213 -45 -101 5 -150 17 -197 48 -14 9 -35 19 -46 23 -12 4 -55 31 -95 61
-41 30 -82 55 -91 55 -9 0 -31 -17 -47 -37 -93 -115 -165 -212 -179 -240 -14
-30 -14 -34 4 -54 25 -28 120 -99 133 -99 5 0 11 -4 13 -9 2 -5 38 -25 81 -46
404 -188 892 -99 1032 190 91 188 52 426 -89 539 -95 76 -175 108 -341 137
-341 58 -361 64 -371 106 -8 30 1 42 53 64 62 26 189 26 267 -1 69 -24 145
-63 208 -108 77 -54 85 -49 199 113 54 77 99 147 99 156 0 34 -141 132 -245
170 -27 10 -70 25 -94 34 -59 22 -221 45 -301 44 -36 -1 -104 -7 -152 -14z"/>
<path d="M4763 6833 c-8 -21 -24 -57 -34 -80 -10 -23 -19 -45 -19 -49 0 -4 -8
-26 -19 -48 -10 -23 -35 -84 -56 -136 -21 -52 -51 -123 -67 -158 -15 -35 -28
-67 -28 -71 0 -4 -27 -72 -60 -151 -72 -171 -87 -209 -130 -315 -17 -44 -42
-105 -56 -135 -43 -99 -114 -288 -114 -303 0 -36 29 -42 208 -45 245 -5 233
-9 272 91 18 45 38 96 45 112 8 17 23 56 35 88 l22 57 245 -2 246 -3 19 -55
c10 -30 24 -68 32 -85 7 -16 25 -65 41 -108 21 -60 33 -81 52 -88 32 -12 385
-12 417 1 37 14 34 47 -15 165 -44 107 -89 219 -119 300 -10 28 -35 88 -55
135 -20 47 -45 108 -55 135 -11 28 -28 69 -39 92 -12 23 -21 47 -21 52 0 6
-11 35 -25 65 -14 30 -25 58 -25 62 0 3 -11 32 -24 63 -14 31 -43 103 -66 161
-23 58 -50 123 -60 145 -9 22 -23 57 -30 78 -22 68 -16 67 -271 67 l-230 0
-16 -37z m287 -607 c12 -37 29 -80 36 -95 30 -56 23 -61 -81 -61 -102 0 -106
3 -82 51 8 14 21 47 30 74 9 26 25 65 34 86 23 47 33 38 63 -55z"/>
<path d="M122 6834 l-22 -15 0 -722 c0 -437 4 -728 10 -737 8 -13 85 -15 574
-18 556 -2 566 -2 586 18 18 18 20 33 20 179 0 136 -2 162 -17 180 -18 21 -25
21 -378 24 l-360 2 -3 83 -3 82 240 0 c209 0 240 2 245 16 3 9 6 90 6 181 0
146 -2 167 -18 179 -13 10 -71 13 -244 14 l-228 0 0 75 0 75 365 0 c353 0 365
1 375 20 6 12 9 83 8 187 -3 167 -3 167 -28 180 -19 10 -150 13 -565 13 -473
0 -543 -2 -563 -16z"/>
<path d="M5953 6840 l-23 -9 0 -736 0 -735 26 -10 c14 -6 101 -10 192 -10 136
0 172 3 190 16 l22 15 0 724 0 724 -22 15 c-18 13 -54 16 -193 15 -93 0 -180
-4 -192 -9z"/>
<path d="M2175 5193 c-61 -6 -227 -60 -281 -90 -246 -136 -382 -358 -403 -661
-11 -154 -35 -214 -113 -287 -88 -82 -110 -87 -410 -94 -191 -4 -260 -9 -270
-19 -9 -9 -13 -56 -15 -170 -1 -179 6 -219 42 -228 29 -7 520 1 553 9 12 3 50
13 85 22 109 28 238 97 313 167 l32 30 73 -56 c201 -153 447 -203 692 -141
157 40 268 105 379 223 236 251 275 613 97 921 -124 215 -373 363 -634 374
-55 3 -118 3 -140 0z m216 -438 c279 -107 294 -518 24 -658 -59 -30 -187 -36
-256 -11 -130 47 -219 179 -219 327 0 164 62 270 195 333 90 43 160 45 256 9z"/>
<path d="M3670 5190 c-131 -10 -235 -44 -324 -103 -83 -56 -109 -83 -149 -157
-80 -145 -68 -351 27 -484 83 -115 194 -161 506 -210 138 -22 231 -54 246 -85
18 -35 0 -64 -53 -91 -41 -20 -56 -22 -157 -18 -101 4 -118 8 -186 40 -41 19
-112 60 -157 91 -45 32 -91 57 -102 57 -16 0 -39 -22 -79 -75 -4 -5 -40 -53
-80 -106 -68 -90 -82 -120 -64 -144 14 -21 99 -83 162 -120 173 -100 396 -152
575 -135 168 16 266 47 370 115 136 89 205 220 205 390 0 131 -32 212 -120
304 -90 93 -222 139 -539 186 -128 19 -179 38 -187 72 -13 52 50 83 168 83 46
0 106 -6 133 -14 62 -16 165 -67 226 -112 67 -49 80 -46 141 39 138 189 160
225 147 249 -11 21 -121 99 -169 121 -19 9 -55 25 -80 36 -69 30 -236 69 -315
73 -38 2 -104 1 -145 -2z"/>
<path d="M5040 5190 c-216 -22 -380 -122 -458 -279 -37 -74 -37 -76 -37 -201
0 -121 1 -128 32 -191 82 -167 212 -232 563 -284 122 -18 216 -49 231 -77 17
-31 2 -64 -38 -90 -35 -21 -49 -23 -158 -22 -117 0 -122 1 -198 37 -42 20
-117 63 -165 97 -57 39 -94 59 -105 55 -13 -6 -105 -120 -167 -209 -8 -11 -23
-30 -32 -40 -31 -34 -23 -77 19 -111 192 -153 435 -234 668 -221 151 7 244 28
340 76 101 50 182 128 227 219 33 65 33 68 33 206 0 136 -1 142 -30 199 -86
167 -212 228 -600 287 -143 22 -192 40 -204 72 -21 55 40 88 162 88 131 0 223
-31 356 -123 30 -21 62 -38 71 -38 24 0 49 25 102 105 25 39 65 96 88 129 54
77 50 93 -38 150 -209 135 -429 190 -662 166z"/>
<path d="M130 5131 c-7 -13 -10 -261 -10 -738 l-1 -718 22 -17 c18 -16 45 -18
199 -18 159 0 179 2 193 18 15 16 17 49 17 260 l0 242 198 0 c235 0 303 12
399 69 179 104 277 303 245 496 -16 100 -81 223 -151 287 -64 58 -170 113
-250 128 -31 6 -225 10 -452 10 -384 0 -399 -1 -409 -19z m753 -382 c64 -18
94 -87 63 -148 -29 -56 -49 -61 -231 -61 l-165 0 0 110 0 110 148 0 c81 0 164
-5 185 -11z"/>
<path d="M5937 5132 c-16 -17 -17 -83 -17 -740 l0 -721 22 -15 c18 -13 55 -16
190 -16 105 0 176 4 193 12 l25 11 0 733 c0 715 0 734 -19 744 -12 6 -94 10
-199 10 -161 0 -181 -2 -195 -18z"/>
<path d="M6525 5121 c-14 -28 -16 -109 -15 -727 1 -383 4 -703 7 -710 15 -40
43 -42 453 -39 354 3 403 5 471 23 193 50 329 175 359 331 31 163 -1 279 -104
380 l-45 44 36 44 c78 95 104 248 63 367 -48 141 -136 225 -296 282 l-79 29
-417 3 -417 3 -16 -30z m748 -364 c58 -25 75 -70 47 -122 -20 -37 -60 -45
-221 -45 l-149 0 0 90 0 90 145 0 c99 0 156 -4 178 -13z m54 -549 c60 -42 65
-111 9 -152 -25 -19 -44 -21 -207 -24 l-179 -3 0 100 0 101 172 0 c162 0 174
-1 205 -22z"/>
<path d="M7946 5128 c-14 -20 -16 -106 -16 -735 0 -634 2 -713 16 -727 14 -14
79 -16 564 -16 485 0 550 2 564 16 13 13 16 44 16 184 0 140 -3 171 -16 184
-13 14 -61 16 -365 16 l-349 0 0 538 c0 405 -3 541 -12 550 -8 8 -67 12 -199
12 -183 0 -188 -1 -203 -22z"/>
<path d="M9226 5128 c-14 -20 -16 -106 -16 -729 0 -681 1 -708 19 -730 l19
-24 560 0 c451 1 563 3 576 14 14 11 16 40 16 185 0 120 -4 176 -12 184 -9 9
-106 12 -375 12 l-363 0 0 85 0 85 229 0 c195 0 232 2 245 16 24 23 24 335 0
358 -13 14 -50 16 -245 16 l-229 0 0 75 0 75 353 0 c289 0 357 3 373 14 17 13
19 28 19 184 0 128 -3 173 -14 185 -12 15 -65 17 -577 17 l-563 0 -15 -22z"/>
</g>
</svg>
